<?xml version="1.0" encoding="UTF-8"?>
<svg width="728px" height="77px" viewBox="0 0 728 77" version="1.1" xmlns="http://www.w3.org/2000/svg" xmlns:xlink="http://www.w3.org/1999/xlink">
    <!-- Generator: sketchtool 51.2 (57519) - http://www.bohemiancoding.com/sketch -->
    <title>83920227-0BBE-4DAA-9A23-1AC592392791</title>
    <desc>Created with sketchtool.</desc>
    <defs>
        <polygon id="path-1" points="0 0.5177 35.8406 0.5177 35.8406 56.5197 0 56.5197"></polygon>
        <polygon id="path-3" points="0.2772 0.678 39.9582 0.678 39.9582 61.4797 0.2772 61.4797"></polygon>
    </defs>
    <g id="Page-1" stroke="none" stroke-width="1" fill="none" fill-rule="evenodd">
        <g id="Hompage-amends---Advanced-search-test" transform="translate(-356.000000, -239.000000)">
            <g id="Find-home-together" transform="translate(356.000000, 238.000000)">
                <g id="Group-3" transform="translate(0.000000, 4.321800)">
                    <mask id="mask-2" fill="white">
                        <use xlink:href="#path-1"></use>
                    </mask>
                    <g id="Clip-2"></g>
                    <path d="M34.0806,9.1587 L9.1206,9.1587 L9.1206,23.3987 C10.7206,22.9187 12.5596,22.6787 14.4796,22.6787 C17.0396,22.6787 18.8006,23.1587 20.4806,23.6387 C21.9206,24.0387 23.3606,24.4387 25.2806,24.4387 C27.3606,24.4387 29.3606,24.1987 31.9206,23.4787 C33.1206,23.0787 33.9206,23.6387 33.9206,24.9187 L33.9206,29.8787 C33.9206,30.8387 33.4406,31.5587 32.4806,31.8787 C30.4006,32.5187 28.0806,32.9187 25.2806,32.9187 C22.6406,32.9187 21.0406,32.5187 19.5206,32.0387 C18.0806,31.5587 16.7206,31.3187 14.6406,31.3187 C12.2406,31.3187 10.4796,31.6387 9.1206,32.4387 L9.1206,54.7597 C9.1206,55.8797 8.4796,56.5197 7.3596,56.5197 L1.7596,56.5197 C0.6396,56.5197 -0.0004,55.8797 -0.0004,54.7597 L-0.0004,2.2787 C-0.0004,1.1587 0.6396,0.5177 1.7596,0.5177 L34.0806,0.5177 C35.2006,0.5177 35.8406,1.1587 35.8406,2.2787 L35.8406,7.3987 C35.8406,8.5187 35.2006,9.1587 34.0806,9.1587" id="Fill-1" fill="#FFFFFF" mask="url(#mask-2)"></path>
                </g>
                <path d="M44.3188,59.0811 L44.3188,21.6411 C44.3188,20.5201 44.9588,19.8801 46.0788,19.8801 L51.3588,19.8801 C52.4788,19.8801 53.1188,20.5201 53.1188,21.6411 L53.1188,59.0811 C53.1188,60.2011 52.4788,60.8411 51.3588,60.8411 L46.0788,60.8411 C44.9588,60.8411 44.3188,60.2011 44.3188,59.0811 M41.9988,8.7601 C41.9988,5.0801 45.0388,2.0401 48.7188,2.0401 C52.3988,2.0401 55.4388,5.0801 55.4388,8.7601 C55.4388,12.4401 52.3988,15.4801 48.7188,15.4801 C45.0388,15.4801 41.9988,12.4401 41.9988,8.7601" id="Fill-4" fill="#FFFFFF"></path>
                <path d="M99.7588,34.8408 L99.7588,59.0808 C99.7588,60.2008 99.1188,60.8408 97.9988,60.8408 L92.7188,60.8408 C91.5988,60.8408 90.9588,60.2008 90.9588,59.0808 L90.9588,35.9608 C90.9588,29.9608 87.5188,27.1608 82.2378,27.1608 C77.7588,27.1608 74.2378,29.4808 72.3188,33.6408 L72.3188,59.0808 C72.3188,60.2008 71.6778,60.8408 70.5578,60.8408 L65.2788,60.8408 C64.1578,60.8408 63.5178,60.2008 63.5178,59.0808 L63.5178,21.6408 C63.5178,20.5208 64.1578,19.8808 65.2788,19.8808 L70.4778,19.8808 C71.5978,19.8808 72.2378,20.5208 72.2378,21.6408 L72.2378,24.0408 C74.4788,21.0008 78.6378,18.9208 83.7588,18.9208 C93.7588,18.9208 99.7588,24.8408 99.7588,34.8408" id="Fill-6" fill="#FFFFFF"></path>
                <g id="Group-10-Copy" transform="translate(107.000000, 0.321800)">
                    <mask id="mask-4" fill="white">
                        <use xlink:href="#path-3"></use>
                    </mask>
                    <g id="Clip-9"></g>
                    <path d="M31.1582,31.7187 C29.0782,28.8387 25.5582,27.0787 20.9982,27.0787 C14.1172,27.0787 9.2382,32.6787 9.2382,40.0387 C9.2382,47.3997 14.1172,52.9997 20.9982,52.9997 C25.5582,52.9997 29.0782,51.2397 31.1582,48.3597 L31.1582,31.7187 Z M32.9182,0.6777 L38.1982,0.6777 C39.3182,0.6777 39.9582,1.3187 39.9582,2.4377 L39.9582,58.7597 C39.9582,59.8797 39.3182,60.5197 38.1982,60.5197 L32.9182,60.5197 C31.7982,60.5197 31.1582,59.9597 31.1582,59.0797 L31.1582,57.7187 C28.7582,59.9597 25.2382,61.4797 20.5182,61.4797 C7.8782,61.4797 0.2772,52.5197 0.2772,40.0387 C0.2772,27.5587 7.8782,18.5987 20.1982,18.5987 C24.9182,18.5987 28.5982,20.1187 31.1582,22.2787 L31.1582,2.4377 C31.1582,1.3187 31.7982,0.6777 32.9182,0.6777 Z" id="Fill-8" fill="#FFFFFF" mask="url(#mask-4)"></path>
                </g>
                <path d="M211.2769,4.8399 L216.8769,4.8399 C217.9969,4.8399 218.6369,5.4799 218.6369,6.5999 L218.6369,59.0809 C218.6369,60.2009 217.9969,60.8409 216.8769,60.8409 L211.2769,60.8409 C210.1569,60.8409 209.5169,60.2009 209.5169,59.0809 L209.5169,34.8409 L185.8369,38.4409 L185.8369,59.0809 C185.8369,60.2009 185.1959,60.8409 184.0759,60.8409 L178.4759,60.8409 C177.3559,60.8409 176.7159,60.2009 176.7159,59.0809 L176.7159,6.5999 C176.7159,5.4799 177.3559,4.8399 178.4759,4.8399 L184.0759,4.8399 C185.1959,4.8399 185.8369,5.4799 185.8369,6.5999 L185.8369,29.5609 L209.5169,25.8809 L209.5169,6.5999 C209.5169,5.4799 210.1569,4.8399 211.2769,4.8399" id="Fill-11" fill="#FFFFFF"></path>
                <path d="M259.2764,40.3609 C259.2764,33.0809 255.0364,27.4009 247.5964,27.4009 C240.1554,27.4009 235.7554,33.0809 235.7554,40.3609 C235.7554,47.6409 240.1554,53.3209 247.5964,53.3209 C255.0364,53.3209 259.2764,47.6409 259.2764,40.3609 M226.7954,40.3609 C226.7954,26.7609 237.0354,18.9209 247.5964,18.9209 C258.1564,18.9209 268.2364,26.7609 268.2364,40.3609 C268.2364,53.9609 258.1564,61.8009 247.5964,61.8009 C237.0354,61.8009 226.7954,53.9609 226.7954,40.3609" id="Fill-13" fill="#FFFFFF"></path>
                <path d="M276.2349,59.0811 L276.2349,21.6411 C276.2349,20.5201 276.8749,19.8801 277.9949,19.8801 L283.1949,19.8801 C284.3149,19.8801 284.9549,20.4401 284.9549,21.4801 L284.9549,23.0811 C286.9549,20.2001 290.7149,18.9201 294.3149,18.9201 C299.3549,18.9201 303.1159,21.7201 304.3949,24.7601 C307.2759,20.8401 311.5949,18.9201 316.2359,18.9201 C324.3159,18.9201 330.3159,24.4401 330.3159,32.6811 L330.3159,59.0811 C330.3159,60.2011 329.6759,60.8411 328.5559,60.8411 L323.2759,60.8411 C322.1559,60.8411 321.5159,60.2011 321.5159,59.0811 L321.5159,33.8011 C321.5159,29.4001 318.7159,27.1611 314.6349,27.1611 C311.9159,27.1611 309.0359,28.6811 307.6749,31.6411 L307.6749,59.0811 C307.6749,60.2011 307.0359,60.8411 305.9159,60.8411 L300.6349,60.8411 C299.5149,60.8411 298.8759,60.2011 298.8759,59.0811 L298.8759,33.8011 C298.8759,29.7211 295.6749,27.1611 292.0749,27.1611 C289.3549,27.1611 286.3949,28.6811 285.0349,31.6411 L285.0349,59.0811 C285.0349,60.2011 284.3949,60.8411 283.2749,60.8411 L277.9949,60.8411 C276.8749,60.8411 276.2349,60.2011 276.2349,59.0811" id="Fill-15" fill="#FFFFFF"></path>
                <path d="M346.5542,38.8408 C346.5542,40.3608 346.7142,41.7208 347.0332,43.0808 L365.3542,30.6808 C363.6742,27.8008 360.5542,27.0808 358.0742,27.0808 C351.1942,27.0808 346.5542,31.9608 346.5542,38.8408 M375.3552,46.1208 C376.4742,44.9208 377.4352,45.2408 377.4352,46.8408 L377.4352,53.8818 C377.4352,54.7608 377.1952,55.4018 376.4742,56.0408 C372.8742,59.0808 367.0342,61.8008 359.9142,61.8008 C346.6342,61.8008 337.8332,53.3208 337.8332,38.9208 C337.8332,27.3198 346.5542,18.9208 358.0742,18.9208 C365.7542,18.9208 372.6342,21.9608 376.0752,30.6808 C376.4742,31.7208 376.2352,32.4408 375.3552,33.0808 L350.7942,49.8008 C353.2742,52.0408 356.4742,53.2408 360.2342,53.2408 C366.3942,53.2408 371.4342,50.3608 375.3552,46.1208" id="Fill-17" fill="#FFFFFF"></path>
                <path d="M418.3921,59.0811 L418.3921,13.4801 L402.7121,13.4801 C401.5921,13.4801 400.9521,12.8401 400.9521,11.7201 L400.9521,6.6001 C400.9521,5.4801 401.5921,4.8401 402.7121,4.8401 L443.1931,4.8401 C444.3131,4.8401 444.9531,5.4801 444.9531,6.6001 L444.9531,11.7201 C444.9531,12.8401 444.3131,13.4801 443.1931,13.4801 L427.5121,13.4801 L427.5121,59.0811 C427.5121,60.2011 426.8721,60.8411 425.7521,60.8411 L420.1531,60.8411 C419.0331,60.8411 418.3921,60.2011 418.3921,59.0811" id="Fill-19" fill="#FFFFFF"></path>
                <path d="M471.6733,40.3609 C471.6733,33.0809 467.4343,27.4009 459.9933,27.4009 C452.5533,27.4009 448.1523,33.0809 448.1523,40.3609 C448.1523,47.6409 452.5533,53.3209 459.9933,53.3209 C467.4343,53.3209 471.6733,47.6409 471.6733,40.3609 M439.1933,40.3609 C439.1933,26.7609 449.4333,18.9209 459.9933,18.9209 C470.5543,18.9209 480.6343,26.7609 480.6343,40.3609 C480.6343,53.9609 470.5543,61.8009 459.9933,61.8009 C449.4333,61.8009 439.1933,53.9609 439.1933,40.3609" id="Fill-21" fill="#FFFFFF"></path>
                <path d="M517.2729,32.0405 C515.1929,29.1605 511.6719,27.4005 507.1129,27.4005 C500.2329,27.4005 495.3519,33.0005 495.3519,39.9605 C495.3519,46.9205 500.2329,52.5205 507.1129,52.5205 C511.6719,52.5205 515.1929,50.7615 517.2729,47.8805 L517.2729,32.0405 Z M519.0329,19.8805 L524.3129,19.8805 C525.4329,19.8805 526.0729,20.5205 526.0729,21.6405 L526.0729,59.8015 C526.0729,70.6815 518.3129,77.3215 505.4329,77.3215 C499.5919,77.3215 494.3119,76.1215 490.6319,73.0815 C489.9129,72.4415 489.6719,71.8015 489.6719,70.9215 L489.6719,64.9215 C489.6719,63.4015 490.6319,63.0015 491.8329,63.9615 C496.2329,67.5615 501.1129,68.8415 505.4329,68.8415 C512.8729,68.8415 517.2729,65.6415 517.2729,59.8015 L517.2729,57.2415 C514.8729,59.4815 511.3529,61.0015 506.6319,61.0015 C493.9929,61.0015 486.3919,52.0405 486.3919,39.9605 C486.3919,27.8805 493.9929,18.9205 506.3129,18.9205 C511.0329,18.9205 514.7129,20.4405 517.2729,22.6005 L517.2729,21.2405 C517.2729,20.3605 517.9129,19.8805 519.0329,19.8805 Z" id="Fill-23" fill="#FFFFFF"></path>
                <path d="M542.7925,38.8408 C542.7925,40.3608 542.9525,41.7208 543.2715,43.0808 L561.5925,30.6808 C559.9125,27.8008 556.7925,27.0808 554.3125,27.0808 C547.4325,27.0808 542.7925,31.9608 542.7925,38.8408 M571.5935,46.1208 C572.7125,44.9208 573.6735,45.2408 573.6735,46.8408 L573.6735,53.8818 C573.6735,54.7608 573.4335,55.4018 572.7125,56.0408 C569.1125,59.0808 563.2725,61.8008 556.1525,61.8008 C542.8725,61.8008 534.0715,53.3208 534.0715,38.9208 C534.0715,27.3198 542.7925,18.9208 554.3125,18.9208 C561.9925,18.9208 568.8725,21.9608 572.3135,30.6808 C572.7125,31.7208 572.4735,32.4408 571.5935,33.0808 L547.0325,49.8008 C549.5125,52.0408 552.7125,53.2408 556.4725,53.2408 C562.6325,53.2408 567.6725,50.3608 571.5935,46.1208" id="Fill-25" fill="#FFFFFF"></path>
                <path d="M598.6313,53.5611 C599.5913,53.5611 600.8713,53.4811 602.3113,53.2411 C603.5113,53.0011 604.2313,53.5611 604.2313,54.7611 L604.2313,59.2411 C604.2313,60.2811 603.7513,60.9211 602.7113,61.1611 C600.9513,61.6411 599.1913,61.8011 597.3513,61.8011 C589.3513,61.8011 584.8703,57.4811 584.8703,49.6411 L584.8703,29.0811 L581.2713,29.7211 C580.1513,29.8801 579.3513,29.4001 579.1913,28.2811 L578.4713,23.9601 C578.3113,22.8401 578.7903,22.0401 579.9103,21.8801 L584.8703,21.0001 L584.8703,10.0401 C584.8703,8.9201 585.5113,8.2801 586.6313,8.2801 L591.9113,8.2801 C593.0303,8.2801 593.6713,8.9201 593.6713,10.0401 L593.6713,19.4801 L601.5913,18.0401 C602.7113,17.8001 603.5113,18.3601 603.6713,19.4801 L604.3913,23.8001 C604.5513,24.9201 604.0713,25.7211 602.9513,25.8801 L593.6713,27.5611 L593.6713,48.4411 C593.6713,51.9611 595.4313,53.5611 598.6313,53.5611" id="Fill-27" fill="#FFFFFF"></path>
                <path d="M648.4722,34.8408 L648.4722,59.0808 C648.4722,60.2008 647.8312,60.8408 646.7112,60.8408 L641.4312,60.8408 C640.3122,60.8408 639.6712,60.2008 639.6712,59.0808 L639.6712,35.9608 C639.6712,29.9608 636.3912,27.1608 631.1122,27.1608 C626.3112,27.1608 622.8712,29.6408 621.0312,33.6408 L621.0312,59.0808 C621.0312,60.2008 620.3912,60.8408 619.2712,60.8408 L613.9912,60.8408 C612.8702,60.8408 612.2312,60.2008 612.2312,59.0808 L612.2312,2.7598 C612.2312,1.6398 612.8702,0.9998 613.9912,0.9998 L619.1912,0.9998 C620.3112,0.9998 620.9512,1.6398 620.9512,2.7598 L620.9512,24.0408 C623.1912,21.0008 627.3512,18.9208 632.4712,18.9208 C642.3922,18.9208 648.4722,24.9208 648.4722,34.8408" id="Fill-29" fill="#FFFFFF"></path>
                <path d="M664.7114,38.8408 C664.7114,40.3608 664.8714,41.7208 665.1904,43.0808 L683.5114,30.6808 C681.8314,27.8008 678.7114,27.0808 676.2314,27.0808 C669.3514,27.0808 664.7114,31.9608 664.7114,38.8408 M693.5124,46.1208 C694.6314,44.9208 695.5924,45.2408 695.5924,46.8408 L695.5924,53.8818 C695.5924,54.7608 695.3524,55.4018 694.6314,56.0408 C691.0314,59.0808 685.1914,61.8008 678.0714,61.8008 C664.7914,61.8008 655.9904,53.3208 655.9904,38.9208 C655.9904,27.3198 664.7114,18.9208 676.2314,18.9208 C683.9114,18.9208 690.7914,21.9608 694.2324,30.6808 C694.6314,31.7208 694.3924,32.4408 693.5124,33.0808 L668.9514,49.8008 C671.4314,52.0408 674.6314,53.2408 678.3914,53.2408 C684.5514,53.2408 689.5914,50.3608 693.5124,46.1208" id="Fill-31" fill="#FFFFFF"></path>
                <path d="M703.1099,59.0811 L703.1099,21.6411 C703.1099,20.5201 703.7499,19.8801 704.8699,19.8801 L710.1499,19.8801 C711.2699,19.8801 711.9099,20.5201 711.9099,21.6411 L711.9099,24.1211 C713.8309,20.9201 717.8309,18.9201 722.7109,18.9201 C723.9909,18.9201 725.1109,19.0001 726.0709,19.2401 C727.1109,19.4801 727.5099,20.2801 727.5099,21.2401 L727.5099,26.6011 C727.5099,27.8011 726.7909,28.3601 725.5899,28.1211 C724.4699,27.8801 723.3499,27.7211 722.3099,27.7211 C716.4699,27.7211 713.7509,31.0811 711.9099,34.2811 L711.9099,59.0811 C711.9099,60.2011 711.2699,60.8411 710.1499,60.8411 L704.8699,60.8411 C703.7499,60.8411 703.1099,60.2011 703.1099,59.0811" id="Fill-33" fill="#FFFFFF"></path>
            </g>
        </g>
    </g>
</svg>